<?xml version="1.0" standalone="no"?>
<!DOCTYPE svg PUBLIC "-//W3C//DTD SVG 20010904//EN"
 "http://www.w3.org/TR/2001/REC-SVG-20010904/DTD/svg10.dtd">
<svg version="1.0" xmlns="http://www.w3.org/2000/svg"
 width="700.000000pt" height="700.000000pt" viewBox="0 0 700.000000 700.000000"
 preserveAspectRatio="xMidYMid meet">
<metadata>
Created by potrace 1.14, written by Peter Selinger 2001-2017
</metadata>
<g transform="translate(0.000000,700.000000) scale(0.100000,-0.100000)"
fill="#000000" stroke="none">
<path d="M3423 6400 c-56 -13 -122 -59 -161 -113 -21 -29 -110 -160 -198 -292
-87 -132 -161 -242 -164 -245 -3 -3 -209 -311 -459 -685 -250 -374 -456 -682
-458 -685 -3 -3 -329 -5 -726 -5 -578 -1 -730 -4 -762 -14 -147 -50 -233 -210
-191 -356 3 -11 19 -69 35 -130 16 -60 42 -153 56 -205 14 -52 33 -120 41
-150 8 -30 42 -154 75 -275 33 -121 92 -335 130 -475 72 -265 92 -334 113
-410 7 -25 23 -81 35 -125 11 -44 53 -195 91 -335 38 -140 88 -322 111 -405
78 -291 108 -353 215 -458 73 -73 191 -133 292 -150 55 -10 532 -12 2025 -12
1828 1 1956 3 2017 19 115 31 202 84 286 174 83 88 110 149 186 427 6 22 15
54 20 70 17 58 80 290 83 306 2 9 8 34 15 55 6 22 24 86 40 144 15 58 49 179
74 270 24 91 88 323 140 515 53 193 103 374 111 403 9 29 18 61 20 70 2 9 19
73 38 142 140 507 150 546 151 615 1 102 -41 181 -129 242 -70 48 -82 49 -842
48 l-712 0 -608 910 c-334 500 -610 912 -613 915 -3 3 -12 19 -20 35 -8 17
-40 55 -70 85 -78 79 -177 107 -287 80z m483 -1407 c219 -329 399 -602 399
-608 0 -7 -276 -10 -807 -10 -445 0 -808 2 -808 5 0 10 803 1210 810 1210 4 0
186 -269 406 -597z m2087 -1361 c-24 -86 -52 -188 -62 -227 -11 -38 -67 -245
-127 -460 -59 -214 -115 -419 -124 -455 -10 -36 -36 -132 -60 -215 -23 -82
-43 -157 -45 -165 -2 -8 -33 -123 -70 -255 -36 -132 -76 -275 -87 -317 l-21
-78 -81 0 c-45 -1 -897 -2 -1894 -3 l-1812 -2 -10 30 c-8 28 -86 307 -130 470
-11 39 -49 178 -85 310 -37 132 -77 281 -91 330 -13 50 -31 113 -38 140 -8 28
-62 226 -121 440 -59 215 -120 437 -136 494 -16 58 -29 108 -29 113 0 9 1634
14 3651 10 l1416 -2 -44 -158z"/>
<path d="M3400 3200 c-69 -12 -152 -47 -216 -89 -354 -231 -354 -741 0 -972
107 -70 192 -94 331 -93 302 2 553 248 566 554 12 258 -150 493 -397 576 -84
28 -207 39 -284 24z"/>
</g>
</svg>
